<?xml version="1.0" encoding="UTF-8"?><svg id="Layer_1" xmlns="http://www.w3.org/2000/svg" xmlns:xlink="http://www.w3.org/1999/xlink" viewBox="0 0 959.63 267.65"><defs><style>.cls-1{fill:#fff;}.cls-2{fill:url(#linear-gradient);}.cls-3{fill:#a6ce39;}</style><linearGradient id="linear-gradient" x1="111.2" y1="109.83" x2="111.22" y2="109.83" gradientUnits="userSpaceOnUse"><stop offset="0" stop-color="#9cc63d"/><stop offset="1" stop-color="#667c4b"/></linearGradient></defs><path class="cls-1" d="M604.42,59.26c-10.22,45.76-20.41,91.07-30.35,137.08h9.95c3.18-13.99,6.27-27.61,9.39-41.35h35.77c3.14,13.83,6.23,27.46,9.38,41.39h10.28c-10.26-46.12-20.37-91.61-30.5-137.12h-13.92ZM595.75,143.93c5.1-23.03,10.08-45.66,15.07-68.17h1.04c4.99,22.48,9.85,44.97,15,68.17h-31.11Z"/><path class="cls-1" d="M533.32,68.18c10.44-.65,19.81,6.95,21.27,17.22.21,1.49.61,2.96.94,4.48h10.09c-.99-4.49-1.43-8.13-2.59-11.53-4.5-13.15-16.22-20.59-30.83-19.85-12.49.63-24.46,10.51-26.94,23.1-1.51,7.62-1.27,15.37,2.22,22.72,2.99,6.3,6.97,11.83,12.19,16.4,6.74,5.91,13.68,11.59,20.49,17.43,8.29,7.11,14.03,15.54,14.88,26.9.66,8.91-4.56,17.75-13.28,21.27-7.83,3.16-18.38.84-23.31-6.26-2.8-4.02-4.38-6.82-4.98-14.27h-8.89s0,1.12,0,1.44c-.25,12.87,8.08,25.01,20.84,28.58,13.17,3.68,24.81.86,33.39-10.56,8.98-11.95,7.8-26.94.13-40.23-3.82-6.62-9.24-11.91-15.05-16.83-7.11-6.02-14.28-11.98-21.03-18.38-6.31-5.99-9.02-13.64-8.58-22.43.5-9.95,8.93-18.55,19.07-19.19Z"/><path class="cls-1" d="M358.83,165.9h-10.7c-.66,2.75-1.1,5.13-1.81,7.42-2.65,8.56-9.8,13.32-18.77,13.23-9.34-.1-16.62-6.37-17.92-15.51-.91-6.42-.8-12.99-1.16-19.68,2.6-1.02,4.16-1.63,5.72-2.24,10.45-4.11,21.09-7.81,31.31-12.44,11.14-5.06,15.19-14.29,12.43-25.8-3.48-14.51-18.25-25.48-31.99-23.76-16.71,2.09-28.02,14.29-28.07,30.4-.05,16.68-.02,33.35,0,50.03,0,2.05-.03,4.16.39,6.15,2.93,13.93,15.56,24.08,29.93,24.16,14.35.08,26.83-9.99,29.81-24.19.51-2.43.53-4.96.82-7.77ZM309.78,113.28c1.32-9.22,10.27-15.36,19.75-14.69,9.47.67,17.39,8.63,17.87,17.86.19,3.7-1.06,6.59-4.26,8.55-1.12.68-2.22,1.4-3.4,1.98-1.68.83-3.38,1.63-5.13,2.28-8.23,3.06-16.47,6.07-26.23,9.65.45-9.3.26-17.56,1.41-25.63Z"/><path class="cls-1" d="M207.31,196.69c13.22-3.96,22.1-15.26,22.3-29.15.23-16.67.09-33.35,0-50.03-.01-2.22-.49-4.46-.99-6.64-3.78-16.31-18.6-24.65-31.35-23.7-16.59,1.23-28.62,14.29-28.76,30.4-.07,8.24-.01,16.49-.01,24.73h.01c0,8.81-.19,17.62.04,26.42.5,19.47,20.13,33.55,38.77,27.97ZM180.07,116.94c.15-10.91,8.53-18.61,19.25-18.37,10.51.23,18.59,8.42,18.7,19.1.04,4.11.05,8.23.04,12.34,0,4.11-.02,8.23-.02,12.34,0,4.21.02,8.42.02,12.62,0,4.21,0,8.42-.04,12.62-.12,10.56-8.25,19.06-18.83,18.96-12.1-.12-19.31-9.39-19.23-18.57.16-17.02-.13-34.04.11-51.05Z"/><path class="cls-1" d="M112.61,122.08h39.67v-11.59h-39.05v-49.34c8.35,0,24.04-.02,24.04-.02,7.78-.1,23.37-.41,23.37-.41v-10.58h-59.1v146.35h11.07v-74.4Z"/><path class="cls-1" d="M385,138.72c4.47,3.05,9.39,5.43,14.11,8.12,5.53,3.15,11.19,6.09,16.54,9.52,3.93,2.52,6.3,6.21,6.28,11.25-.04,10.14-7.88,18.73-18.36,18.95-11.08.23-18.31-7.69-19.55-15.95-.24-1.59-.52-3.18-.79-4.83h-10.93s-.16,0-.07,2.29c.02.56.06,1.13.13,1.68,1.64,11.29,6.85,20.22,17.49,25.12,10.74,4.94,21.29,3.97,30.93-2.78,15.75-11.02,16.88-30.96,2.59-43.77-2.76-2.47-5.97-4.53-9.21-6.36-5.71-3.22-11.71-5.93-17.37-9.23-3.52-2.06-6.85-4.58-9.83-7.36-1.5-1.4-2.6-3.77-2.89-5.84-1.45-10.27,6.11-19.56,16.69-20.89,10.05-1.26,19.55,5.98,21,15.98.23,1.6.57,3.19.84,4.68h10.72c0-2.04.13-3.52-.02-4.98-2.21-21.23-26.05-33.69-44.8-23.54-14.88,8.05-25.84,32.71-3.51,47.92Z"/><path class="cls-1" d="M641.59,59.24v10.07h25.99v63.75c0,10.55-.05,21.1.01,31.65.06,10.46-.29,20.94.24,31.56h10.52v-127.18h26.02v-9.81l-62.79-.05Z"/><path class="cls-1" d="M458.21,88.11v-29h-10.81s.02,5.13.02,7.5c-.02,31.11-.02,62.21,0,93.32,0,3.75-.06,7.5.17,11.24.69,11.64,9.22,22.45,20.39,25.64,2.73.78,8.96,1.17,8.96,1.17v-11.19s-3.43-.4-5.05-.74c-4.95-1.05-8.7-3.92-10.6-8.4-1.57-3.7-2.82-7.85-2.87-11.82-.28-20.42-.14-40.85-.11-61.27,0-1.44.28-2.88.51-5.06h21.57v-11.38h-22.17Z"/><path class="cls-1" d="M268.06,101.61c3.23-1.86,7.37-2.3,11.17-2.98,2.83-.51,5.77-.38,8.72-.54v-10.45c-10.28-1.89-19.52-.09-28.15,5.28-.76-1.7-1.4-3.14-2.12-4.75h-16.56v10.78c2.35.57,4.11,1.01,6.41,1.57v95.95h11.45c0-2.83,0-5.03,0-7.24,0-23.79.1-47.57-.05-71.36-.05-7.34,3.13-12.81,9.13-16.26Z"/><path class="cls-2" d="M111.2,109.83s.02.01.02.02c0,0,0-.02-.01-.03h-.01Z"/><path class="cls-3" d="M57.62,45.95C94.26,3.65,154.88-11.12,207.2,8.67c17.2,6.31,33.05,16.08,46.39,28.48-13.71-11.99-29.76-21.21-46.93-26.93-51.37-17.71-109.77-2.05-144.07,40,0,0-4.97-4.27-4.97-4.27h0Z"/><path class="cls-3" d="M745.75,59.49c5.21,0,9.68.68,13.43,2.04,3.74,1.36,6.59,3.98,8.54,7.86,1.95,3.88,2.93,9.7,2.93,17.46,0,5.95-.59,11.57-1.77,16.88-1.18,5.3-2.97,10.76-5.37,16.39-2.4,5.62-5.51,11.86-9.34,18.72l-27.22,49.65c2.36-.13,4.74-.19,7.14-.19h40.09v7.37h-53.58v-4.85c0-.78.08-1.45.24-2.04.16-.58.37-1.19.61-1.84l28.07-51.21c5.61-10.09,9.7-19.01,12.27-26.77,2.56-7.76,3.76-15.45,3.6-23.08-.16-5.82-1.06-10.09-2.68-12.8-1.63-2.72-3.87-4.46-6.71-5.24-2.85-.78-6.19-1.16-10.01-1.16-2.52,0-4.96.1-7.32.29-2.36.19-4.84.58-7.45,1.16-2.61.58-5.66,1.46-9.15,2.62l-.73-6.01c3.91-1.55,7.22-2.68,9.95-3.39,2.73-.71,5.23-1.19,7.51-1.46,2.28-.26,4.6-.39,6.96-.39Z"/><path class="cls-3" d="M809.95,59.49c6.75,0,12.1,2.46,16.05,7.37,3.95,4.92,6.75,12.48,8.42,22.69,1.67,10.22,2.5,23.28,2.5,39.18s-.84,28.8-2.5,39.08c-1.67,10.28-4.48,17.88-8.42,22.79-3.95,4.92-9.3,7.37-16.05,7.37s-11.98-2.46-15.93-7.37c-3.95-4.91-6.75-12.51-8.42-22.79-1.67-10.28-2.5-23.31-2.5-39.08s.83-28.96,2.5-39.18c1.67-10.21,4.47-17.78,8.42-22.69,3.95-4.91,9.25-7.37,15.93-7.37ZM809.95,66.66c-4.07,0-7.51,1.2-10.31,3.59-2.81,2.39-5.07,6.14-6.77,11.25-1.71,5.11-2.93,11.54-3.66,19.3-.73,7.76-1.1,17.07-1.1,27.93s.37,20.01,1.1,27.83c.73,7.82,1.95,14.29,3.66,19.4,1.71,5.11,3.97,8.86,6.77,11.25,2.81,2.39,6.24,3.59,10.31,3.59s7.63-1.19,10.44-3.59c2.81-2.39,5.07-6.14,6.77-11.25,1.71-5.11,2.93-11.57,3.66-19.4.73-7.82,1.1-17.1,1.1-27.83s-.37-20.17-1.1-27.93c-.73-7.76-1.95-14.19-3.66-19.3-1.71-5.11-3.97-8.86-6.77-11.25-2.81-2.39-6.29-3.59-10.44-3.59Z"/><path class="cls-3" d="M870.04,59.49c5.21,0,9.68.68,13.43,2.04,3.74,1.36,6.59,3.98,8.54,7.86,1.95,3.88,2.93,9.7,2.93,17.46,0,5.95-.59,11.57-1.77,16.88-1.18,5.3-2.97,10.76-5.37,16.39-2.4,5.62-5.51,11.86-9.34,18.72l-27.22,49.65c2.36-.13,4.74-.19,7.14-.19h40.09v7.37h-53.58v-4.85c0-.78.08-1.45.24-2.04.16-.58.37-1.19.61-1.84l28.07-51.21c5.61-10.09,9.7-19.01,12.27-26.77,2.56-7.76,3.76-15.45,3.6-23.08-.16-5.82-1.06-10.09-2.68-12.8-1.63-2.72-3.87-4.46-6.71-5.24-2.85-.78-6.19-1.16-10.01-1.16-2.52,0-4.96.1-7.32.29-2.36.19-4.84.58-7.45,1.16-2.61.58-5.66,1.46-9.15,2.62l-.73-6.01c3.91-1.55,7.22-2.68,9.95-3.39,2.73-.71,5.23-1.19,7.51-1.46,2.28-.26,4.6-.39,6.96-.39Z"/><path class="cls-3" d="M939.12,59.49c1.54,0,3.7.1,6.47.29,2.77.19,5.65.94,8.67,2.23l-.98,5.82c-1.63-.51-3.09-.84-4.39-.97-1.3-.13-2.73-.22-4.27-.29-1.55-.06-3.38-.1-5.49-.1-4.96,0-9.13.87-12.51,2.62-3.38,1.75-6.06,5.01-8.06,9.79-2,4.79-3.44,11.8-4.33,21.04-.9,9.25-1.34,21.37-1.34,36.37,0,9.96.22,18.43.67,25.41.45,6.98,1.4,12.61,2.87,16.87s3.62,7.4,6.47,9.41c2.85,2.01,6.71,3.01,11.6,3.01,5.94,0,10.35-1.42,13.24-4.27,2.89-2.84,4.78-7.01,5.68-12.51.89-5.49,1.34-12.12,1.34-19.88,0-9.18-.53-16.55-1.59-22.11-1.06-5.56-2.95-9.6-5.68-12.12-2.73-2.52-6.61-3.78-11.66-3.78-3.01,0-5.82.58-8.42,1.75-2.61,1.16-5.21,3.23-7.81,6.21-2.61,2.98-5.45,7.18-8.54,12.61l-.49-4.46c2.68-5.95,5.29-10.54,7.81-13.77,2.52-3.23,5.25-5.53,8.18-6.89,2.93-1.36,6.35-2.04,10.25-2.04,5.86,0,10.43,1.42,13.73,4.27,3.3,2.85,5.63,7.56,7.02,14.16,1.38,6.6,2.07,15.52,2.07,26.77,0,6.59-.29,12.58-.85,17.94-.57,5.37-1.73,9.89-3.48,13.58-1.75,3.69-4.31,6.53-7.69,8.53-3.38,2-7.79,3.01-13.24,3.01s-10.29-1.1-13.79-3.3c-3.5-2.2-6.16-5.72-7.99-10.57-1.83-4.85-3.09-11.25-3.78-19.2-.69-7.95-1.04-17.68-1.04-29.19,0-16.55.59-29.9,1.77-40.05,1.18-10.15,3.03-17.81,5.55-22.98,2.52-5.17,5.76-8.66,9.7-10.47,3.95-1.81,8.73-2.72,14.34-2.72Z"/><path class="cls-3" d="M60.27,229.88l-1.8-2.27c-.59-.76-1.15-1.55-1.73-2.32-1.16-1.54-2.23-3.14-3.34-4.71l-1.57-2.42-.78-1.21-.74-1.23c-4.02-6.52-7.32-13.42-10.01-20.52-2.67-7.07-4.63-14.37-5.98-21.78,9.49-4.5,20.07-10.99,25.98-19.58.89-1.39,1.74-2.83,2.28-4.39-.79,1.44-1.76,2.76-2.78,4.03-6.51,7.94-16.77,14.05-25.56,19.49-.04-.25-.08-.5-.13-.76,5.14-3.4,11.47-7.47,15.39-12.03,4.36-5.41,8.02-11.41,10.41-17.92-.8,1.53-1.65,3.03-2.56,4.49-3.15,5.09-6.48,10.11-10.5,14.54-3.4,3.68-8.79,7.2-12.81,10.51-.03-.17-.06-.35-.09-.52,5.85-5.4,12.64-11.65,16.7-18.35,2.67-4.71,5.14-9.62,7.33-14.58.39-.91.8-1.82,1.08-2.77-1.52,3.07-4.09,7.3-5.78,10.33-1.96,3.44-3.85,6.86-6.09,10.08-3.46,5.09-9.08,10-13.35,14.66-.04-.23-.07-.47-.11-.7,8.02-10.11,16.45-21.38,21.18-33.31-.88,1.56-1.73,3.12-2.63,4.66-2.57,4.48-5.28,9.51-7.96,13.88-2.84,4.69-7.52,9.38-10.7,14.02-.09-.6-.18-1.2-.26-1.8,3.47-5.6,8.36-11.37,11.44-17.06,4.31-7.8,8.25-16.22,11.4-24.53-6.63,13.38-16.16,26.9-23,40.38-.23-1.84-.43-3.68-.59-5.52,3.91-5.91,9.14-12.1,12.13-18.43,2.32-5.23,4.26-10.62,6.09-16.04,1.34-1.88,2.66-3.78,3.91-5.72-1.11,1.29-2.21,2.59-3.3,3.9.69-2.07,1.37-4.14,2.05-6.21-1.21,2.59-2.33,5.22-3.42,7.86-.86,1.05-1.72,2.11-2.57,3.17.98-2.46,1.93-4.92,2.85-7.4.25-.47.5-.94.75-1.4-.17.24-.33.48-.5.71,1.6-4.37,3.08-8.77,4.45-13.22-2.44,5.73-4.79,11.49-7.17,17.24-3.59,5.47-8.87,11.23-11.78,17.1-.46.97-.9,1.96-1.33,2.95-.96,1.76-1.85,3.56-2.72,5.37-.03-1.59-.04-3.18-.03-4.77.72-1.11,1.45-2.21,2.15-3.33,6.98-11.89,14.49-24.65,19.59-37.44-4.93,9.48-12.44,21.31-17.25,30.88-1.39,2.82-2.92,5.56-4.47,8.29.02-1.23.06-2.46.1-3.7,1.87-4.92,3.97-9.77,6.11-14.57,4.46-9.85,11.3-19.63,16.44-29.15-6.02,9.03-13.1,18.76-17.6,28.62-1.69,3.82-3.33,7.71-4.79,11.65.16-2.76.38-5.53.66-8.29.6-1.37,1.23-2.74,1.9-4.08,2.73-5.27,7.82-10.8,10.78-15.95-4.21,5.24-8.99,11.04-12.38,17.22.27-2.32.58-4.63.92-6.94,2.95-4.64,6.39-9.16,9.33-13.42,3.07-4.22,7.01-9.35,10.25-13.41,1.4-1.76,2.82-3.52,4.41-5.12-.91.68-1.72,1.48-2.52,2.27-5.52,5.67-10.65,11.78-15.07,18.36-1.8,2.83-3.99,5.78-6,8.81.24-1.46.49-2.92.76-4.38,2.87-3.89,5.96-7.78,8.36-11.56,2.7-4.27,6.03-8.06,8.84-12.25-2.34,2.45-4.57,4.96-6.76,7.51-2.24,2.6-4.03,5.48-5.8,8.35-.36.61-.72,1.22-1.08,1.84,5.99-10.89,13.31-21.08,20.41-31.25-8.75,10.09-17.82,22.4-23.56,35.25.3-1.58.62-3.16.95-4.73.15-.68.31-1.35.46-2.03,4.54-5.52,8.71-11.31,12.45-17.41,3.97-6.74,7.35-13.79,10.23-21.06-3.3,6-7.85,14.61-11.32,20.4-3.02,5-7.65,11.94-11.21,17.4.14-.61.27-1.21.41-1.82,8.01-12.9,15.02-26.44,20.2-40.72-3.48,6.99-8.3,16.97-11.92,23.77-2.2,4.12-4.99,9.28-7.62,14.23.75-2.52,1.53-5.08,2.31-7.62,4.59-6.03,8.81-12.43,10.44-19.9-1.97,4.51-4.37,8.77-7.02,12.9-.77,1.2-1.56,2.38-2.35,3.57.32-1.02.64-2.03.95-3.03.68-1.08,1.34-2.17,1.98-3.27,2.24-3.28,4.1-6.82,5.61-10.51,2.65-5.48,4.99-11.11,7.05-16.82-1.47,2.88-2.9,5.77-4.34,8.66.58-2.22,1.06-4.47,1.43-6.72-1.67,4.86-3.31,9.73-5.3,14.45-.71,1.4-1.43,2.8-2.15,4.19-.87,1.66-1.76,3.31-2.66,4.95,1.48-4.59,2.84-8.66,3.89-11.7.91-2.66,1.59-4.52,1.91-5.26.01-.03.03-.06.04-.09.31-.69.42-1.04.37-1.15-.04-.05-.14.02-.29.17-.22.22-.55.63-.9,1.09.52-1.42,1.09-2.82,1.73-4.19,1.52-2.6,3.19-5.15,5.04-7.54-2.78,2.43-5.26,5.35-6.88,8.68-1,2.28-1.81,4.64-2.48,7.03-1.55,2.89-3.13,6.41-4.69,10.32.16-1.14.34-2.28.56-3.41,1.82-6.54,4.64-14.32,6.38-20.88-1.52,3.32-2.95,6.67-4.22,10.09,1.86-5.48,4.15-10.84,6.48-16.13-4.19,7.03-7.61,14.55-9.72,22.49-1.1,4.66-1.76,9.41-2,14.18-.37.93-.74,1.85-1.1,2.79,0-1.41,0-2.83,0-4.24.06-2.9.23-5.78.5-8.66,1.45-7.19,3.36-14.3,5.37-21.33-1.46,3.5-2.84,7.25-4.04,11.15.44-2.62.93-5.23,1.49-7.84-1.78,5.36-3.04,10.9-3.79,16.5-1.6,7.17-2.46,14.55-2.14,21.53-.38,1.1-.75,2.21-1.12,3.32-.11-1.63-.21-3.24-.16-4.9.28-10.74,1.32-21.44,1.81-32.18-1.71,10.64-2.9,21.38-3.02,32.17,0,2.15.22,4.36.48,6.48.03.3.06.6.09.91-.42,1.36-.82,2.73-1.21,4.1-.86-13.46-1.37-27.36-1.57-40.53-1.23,14.2-.94,28.54.97,42.67-.22.8-.43,1.6-.63,2.41-.31-2.63-.8-5.25-1.38-7.81-.73-2.87-1.53-5.71-1.99-8.63-1.13-6.81-1.38-13.74-1.09-20.64-1.32,7.85-1.22,15.97.41,23.79,1.3,5.11,2.74,10.26,3.51,15.49-.4,1.65-.78,3.3-1.13,4.96-.34-2.68-.8-5.35-1.38-7.98-1.58-6.78-3.47-13.51-6.24-19.9,2.67,10.26,5.47,20.55,6.98,31.04-.28,1.42-.54,2.85-.78,4.28.02-4.13-.4-8.26-1.24-12.32-1.26-5.34-3.53-10.91-5.31-16.12.83,5.6,2.81,10.9,4.07,16.39,1.04,4.79,1.6,9.67,2.08,14.57-.33,2.14-.61,4.29-.86,6.44-.77-4.04-1.76-8.05-2.89-11.98-2.35-9.35-4.47-18.81-5.73-28.38-.03,1.21.05,2.43.15,3.63.7,8.46,2.25,16.84,4.35,25.06,1.47,5.01,2.74,10.07,3.77,15.17-.1,1.14-.19,2.28-.27,3.42-2.11-6.19-4.35-12.32-6.47-18.5-1.14-3.29-2.23-6.59-3.22-9.93-.93-3.34-1.97-6.7-2.19-10.18-.12.87-.09,1.76-.03,2.63.45,6.14,2.29,12.09,4.23,17.89,2.19,6.29,4.69,12.46,7.65,18.43-.1,1.52-.18,3.04-.23,4.56-2.5-6.27-5.17-12.46-7.69-18.72-2.78-6.79-4.87-13.82-7.01-20.85,2.11,14.18,7.89,27.47,14.69,40-.07,2.09-.09,4.18-.07,6.27-2.28-5.32-4.74-10.56-7.25-15.78-2.73-5.77-7.17-14.24-9.51-20.09,1.86,7.2,5.21,13.93,8.36,20.64,2.7,5.51,5.46,11,8.41,16.38,0,.22,0,.44,0,.66,0,.12,0,.23.01.35-5.03-6.55-11.3-12.75-15.31-19.81-1.56-2.86-2.98-5.8-4.25-8.84,1.56,6.42,4.59,12.46,8.52,17.76,3.06,4.18,7.32,8.12,11.07,11.95.08,2.4.21,4.8.42,7.2-3.12-3.86-6.9-7.63-9.51-11.62-3.35-5.15-6.29-10.53-9.31-15.89,3.78,10.58,11.16,20.07,18.9,28.32.19,2,.42,3.99.7,5.98-6.85-8.18-15.2-16.48-20.16-25.72-.34-.7-.71-1.41-.88-2.18.04.8.3,1.57.55,2.32,4.08,10.13,12.61,18.72,20.59,26.27.16,1.08.33,2.15.51,3.22-9.2-6.82-19.22-14.05-26.11-23.16,5.57,10.16,16.06,17.89,26.18,23.54.15.87.32,1.74.49,2.61-4.63-2.54-10.39-4.88-14.77-7.58-4.81-3.01-9.39-6.32-13.83-9.86,7.29,8.22,18.38,13.8,28.65,17.71,1.62,8.09,4.05,16.02,7.39,23.56.39.91.82,1.8,1.24,2.69l.63,1.34.68,1.32c.46.87.89,1.76,1.37,2.62l1.46,2.57c.48.86,1.03,1.68,1.54,2.52.52.84,1.03,1.68,1.59,2.49l1.65,2.45c.57.8,1.15,1.6,1.74,2.38l.88,1.18.92,1.15,1.85,2.29c1.3,1.47,2.52,2.99,3.91,4.38,2.65,2.87,5.53,5.51,8.47,8.04-1.22-1.52-2.53-2.95-3.7-4.49ZM37.19,83.12c.02,1.82.03,3.65.03,5.49-.23.64-.47,1.27-.7,1.91.14-2.47.37-4.94.67-7.4ZM34.7,148.5c.42-1.02.88-2.05,1.35-3.1.99-1.72,2-3.42,3.04-5.1.41-.66,6.29-9.52,6.72-10.16-1.67,5.14-9.42,16.61-11.96,20.48.28-.71.57-1.42.85-2.12ZM32.23,154.71c.18-.45.36-.89.53-1.34,4.5-5.37,9.61-11.93,12.36-18.35.3-.7.59-1.41.89-2.12.97-1.37,1.96-2.72,2.95-4.08-1.74,4.31-3.44,8.63-5.35,12.87-2.43,5.26-7.77,12.16-11.05,18.11-.14-1.69-.25-3.39-.33-5.09Z"/><path class="cls-1" d="M114.62,229.66h-3.17l-9.27,29.22h5.1l1.9-6.76h8.91l1.9,6.76h5.12l-9.31-29.22h-1.16ZM110.32,248.02l3.3-11.77,3.31,11.77h-6.61Z"/><path class="cls-1" d="M139.79,247.82c-.96-.6-2.17-1.18-3.63-1.75-.74-.31-1.34-.58-1.82-.82-.48-.24-.85-.48-1.13-.71-.28-.23-.48-.48-.6-.73-.12-.25-.18-.55-.18-.88,0-.46.1-.87.29-1.23.19-.37.49-.66.88-.88s.89-.33,1.48-.33c.64,0,1.17.14,1.58.41.42.27.72.64.92,1.08.2.45.3.95.3,1.5h4.68c0-1.31-.3-2.47-.89-3.48-.59-1.01-1.45-1.8-2.57-2.37-1.12-.57-2.46-.85-4.02-.85-1.11,0-2.11.16-2.99.49s-1.64.78-2.27,1.36c-.63.58-1.11,1.25-1.45,2.02s-.5,1.59-.5,2.49.14,1.63.42,2.29c.28.66.69,1.23,1.22,1.74.54.5,1.19.96,1.97,1.37.78.42,1.67.83,2.67,1.24.96.4,1.73.78,2.31,1.12.58.35.99.7,1.25,1.05s.39.76.39,1.21c0,.5-.11.92-.33,1.29-.22.36-.55.63-.97.81-.43.18-.97.27-1.63.27-.55,0-1.08-.09-1.58-.27s-.93-.51-1.25-.99c-.33-.48-.51-1.15-.55-2.01h-4.52c0,1.19.3,2.32.9,3.39.6,1.07,1.49,1.94,2.66,2.62,1.17.68,2.61,1.01,4.3,1.01,1.14,0,2.17-.15,3.1-.45.93-.3,1.73-.73,2.39-1.29.66-.56,1.17-1.23,1.53-2.01.35-.78.53-1.65.53-2.61,0-1.19-.24-2.19-.72-2.99s-1.2-1.5-2.17-2.11Z"/><path class="cls-1" d="M158.49,247.82c-.96-.6-2.17-1.18-3.63-1.75-.74-.31-1.34-.58-1.82-.82-.48-.24-.85-.48-1.13-.71-.28-.23-.48-.48-.6-.73-.12-.25-.18-.55-.18-.88,0-.46.1-.87.29-1.23.19-.37.49-.66.88-.88s.89-.33,1.48-.33c.64,0,1.17.14,1.58.41.42.27.72.64.92,1.08.2.45.3.95.3,1.5h4.68c0-1.31-.3-2.47-.89-3.48-.59-1.01-1.45-1.8-2.57-2.37-1.12-.57-2.46-.85-4.02-.85-1.11,0-2.11.16-2.99.49s-1.64.78-2.27,1.36c-.63.58-1.11,1.25-1.45,2.02s-.5,1.59-.5,2.49.14,1.63.42,2.29c.28.66.69,1.23,1.22,1.74.54.5,1.19.96,1.97,1.37.78.42,1.67.83,2.67,1.24.96.4,1.73.78,2.31,1.12.58.35.99.7,1.25,1.05s.39.76.39,1.21c0,.5-.11.92-.33,1.29-.22.36-.55.63-.97.81-.43.18-.97.27-1.63.27-.55,0-1.08-.09-1.58-.27s-.93-.51-1.25-.99c-.33-.48-.51-1.15-.55-2.01h-4.52c0,1.19.3,2.32.9,3.39.6,1.07,1.49,1.94,2.66,2.62,1.17.68,2.61,1.01,4.3,1.01,1.14,0,2.17-.15,3.1-.45.93-.3,1.73-.73,2.39-1.29.66-.56,1.17-1.23,1.53-2.01.35-.78.53-1.65.53-2.61,0-1.19-.24-2.19-.72-2.99s-1.2-1.5-2.17-2.11Z"/><path class="cls-1" d="M179.57,239.42c-.77-.88-1.68-1.54-2.73-1.99-1.05-.45-2.22-.67-3.5-.67s-2.41.22-3.45.67c-1.04.45-1.95,1.11-2.72,1.99s-1.36,1.96-1.78,3.26c-.42,1.3-.62,2.79-.62,4.48v1.75c0,1.69.21,3.18.62,4.47.41,1.3,1.01,2.39,1.79,3.26.78.88,1.69,1.54,2.74,1.98,1.05.44,2.2.66,3.46.66s2.43-.22,3.47-.66c1.04-.44,1.95-1.1,2.72-1.98s1.36-1.96,1.78-3.26c.41-1.3.62-2.79.62-4.47v-1.75c0-1.69-.21-3.18-.62-4.48-.42-1.3-1.01-2.38-1.78-3.26ZM177.3,248.9c0,1.08-.08,2.03-.24,2.84s-.4,1.48-.73,2.02-.74.94-1.22,1.2-1.06.4-1.72.4c-.59,0-1.12-.13-1.61-.4-.48-.27-.9-.67-1.24-1.2s-.62-1.21-.8-2.02-.28-1.76-.28-2.84v-1.75c0-1.07.09-2.01.28-2.82s.46-1.49.8-2.03.76-.95,1.23-1.21,1-.4,1.58-.4,1.13.13,1.62.4c.49.27.91.67,1.25,1.21s.62,1.22.8,2.03.28,1.75.28,2.82v1.75Z"/><path class="cls-1" d="M190.13,244.38c.1-.78.28-1.45.54-2,.26-.55.63-.97,1.12-1.25s1.11-.43,1.88-.43c.7,0,1.27.16,1.74.48.46.32.82.8,1.07,1.43.25.64.39,1.42.42,2.36h4.4c-.03-1.77-.35-3.26-.98-4.48-.63-1.22-1.5-2.14-2.62-2.78-1.12-.63-2.44-.95-3.96-.95-1.43,0-2.68.23-3.73.69-1.06.46-1.93,1.13-2.63,2.02-.7.88-1.21,1.96-1.55,3.23-.34,1.27-.51,2.72-.51,4.33v1.97c0,1.63.17,3.08.51,4.34.34,1.26.86,2.34,1.55,3.22s1.58,1.55,2.64,2.02c1.06.46,2.31.69,3.74.69s2.63-.31,3.76-.93,2.04-1.5,2.72-2.65c.68-1.14,1.04-2.49,1.06-4.02h-4.4c-.03.87-.18,1.58-.46,2.12-.28.54-.66.94-1.13,1.19-.48.25-1.01.38-1.62.38-.78,0-1.41-.14-1.91-.42-.5-.28-.87-.7-1.13-1.24-.26-.55-.44-1.21-.53-2-.09-.78-.14-1.68-.14-2.7v-1.97c0-.99.05-1.88.15-2.66Z"/><rect class="cls-1" x="205.21" y="237.16" width="4.68" height="21.71"/><path class="cls-1" d="M207.56,228.86c-.82,0-1.45.25-1.91.74s-.68,1.12-.68,1.87.23,1.35.68,1.85,1.09.74,1.91.74,1.45-.25,1.91-.74c.45-.5.68-1.11.68-1.85s-.23-1.37-.68-1.87c-.46-.5-1.09-.74-1.91-.74Z"/><path class="cls-1" d="M229.61,253.84v-10.13c0-1.66-.31-3-.93-4.02s-1.48-1.77-2.56-2.23c-1.08-.46-2.32-.69-3.71-.69-1.16,0-2.22.18-3.17.54s-1.76.86-2.43,1.49c-.67.63-1.18,1.34-1.54,2.15-.36.8-.53,1.64-.53,2.51h4.68c0-.56.11-1.06.32-1.5.21-.43.53-.78.95-1.03s.94-.38,1.56-.38,1.08.1,1.47.31c.39.21.7.54.9.99.21.46.31,1.06.31,1.81v2.01h-1.97c-1.44,0-2.71.17-3.78.52-1.08.35-1.97.84-2.68,1.47-.71.64-1.24,1.4-1.61,2.28-.36.88-.54,1.87-.54,2.95,0,1.34.27,2.49.81,3.44.54.96,1.29,1.69,2.24,2.2.95.51,2.03.76,3.25.76.84,0,1.59-.16,2.23-.47.64-.31,1.19-.73,1.65-1.23.21-.23.39-.47.56-.71,0,0,0,0,0,0,.11.82.27,1.49.48,2.01h4.76v-.32c-.23-.58-.4-1.25-.53-2.04-.13-.78-.19-1.67-.19-2.68ZM223.54,254.89c-.56.33-1.21.49-1.96.49-.55,0-1.01-.1-1.39-.31-.38-.21-.67-.53-.86-.95-.19-.43-.29-.98-.29-1.67,0-.56.1-1.08.29-1.54.19-.47.47-.87.84-1.19.37-.33.82-.58,1.35-.76s1.14-.27,1.81-.27h1.61v4.82c-.04.07-.07.13-.11.2-.3.47-.73.87-1.28,1.19Z"/><path class="cls-1" d="M241.85,255.23c-.36,0-.68-.06-.94-.18s-.47-.35-.62-.7-.22-.86-.22-1.53v-12.04h3.09v-3.61h-3.09v-5.32h-4.66v5.32h-2.91v3.61h2.91v12.36c0,1.5.21,2.7.64,3.6.43.9,1.02,1.55,1.77,1.95s1.6.59,2.55.59c.64,0,1.19-.05,1.65-.14s.86-.21,1.2-.34v-3.77c-.12.04-.31.08-.57.13-.26.05-.53.07-.79.07Z"/><rect class="cls-1" x="247.07" y="237.16" width="4.68" height="21.71"/><path class="cls-1" d="M249.42,228.86c-.82,0-1.45.25-1.91.74s-.68,1.12-.68,1.87.23,1.35.68,1.85,1.09.74,1.91.74,1.45-.25,1.91-.74c.45-.5.68-1.11.68-1.85s-.23-1.37-.68-1.87c-.46-.5-1.09-.74-1.91-.74Z"/><path class="cls-1" d="M270.84,239.42c-.77-.88-1.68-1.54-2.73-1.99-1.05-.45-2.22-.67-3.5-.67s-2.41.22-3.45.67c-1.04.45-1.95,1.11-2.72,1.99s-1.36,1.96-1.78,3.26c-.42,1.3-.62,2.79-.62,4.48v1.75c0,1.69.21,3.18.62,4.47.41,1.3,1.01,2.39,1.79,3.26.78.88,1.69,1.54,2.74,1.98,1.05.44,2.2.66,3.46.66s2.43-.22,3.47-.66c1.04-.44,1.95-1.1,2.72-1.98s1.36-1.96,1.78-3.26c.41-1.3.62-2.79.62-4.47v-1.75c0-1.69-.21-3.18-.62-4.48-.42-1.3-1.01-2.38-1.78-3.26ZM268.56,248.9c0,1.08-.08,2.03-.24,2.84s-.4,1.48-.73,2.02-.74.94-1.22,1.2-1.06.4-1.72.4c-.59,0-1.12-.13-1.61-.4-.48-.27-.9-.67-1.24-1.2s-.62-1.21-.8-2.02-.28-1.76-.28-2.84v-1.75c0-1.07.09-2.01.28-2.82s.46-1.49.8-2.03.76-.95,1.23-1.21,1-.4,1.58-.4,1.13.13,1.62.4c.49.27.91.67,1.25,1.21s.62,1.22.8,2.03.28,1.75.28,2.82v1.75Z"/><path class="cls-1" d="M291.08,238.59c-.51-.64-1.12-1.11-1.84-1.39-.72-.29-1.51-.43-2.38-.43-1.11,0-2.12.25-3.02.75-.82.45-1.52,1.09-2.12,1.88l-.14-2.24h-4.39v21.71h4.68v-15.71c.08-.17.16-.36.25-.51.35-.6.78-1.06,1.28-1.41s1.05-.51,1.66-.51c.66,0,1.2.13,1.63.39.43.26.75.69.97,1.28.22.6.33,1.4.33,2.42v14.05h4.68v-14.01c0-1.48-.14-2.74-.41-3.77s-.67-1.87-1.17-2.51Z"/><path class="cls-1" d="M314.9,227.63c-1.36,0-2.54.29-3.54.86-1,.58-1.77,1.41-2.31,2.52-.54,1.1-.81,2.46-.81,4.08v2.07h-2.73v3.61h2.73v18.1h4.68v-18.1h3.53v-3.61h-3.53v-2.07c0-.75.11-1.38.32-1.89.21-.51.53-.9.94-1.16.41-.27.92-.4,1.5-.4.25,0,.52.01.79.04.27.03.5.07.69.12l.1-3.81c-.36-.12-.74-.21-1.14-.27-.4-.06-.81-.09-1.22-.09Z"/><path class="cls-1" d="M334.16,239.42c-.77-.88-1.68-1.54-2.73-1.99-1.05-.45-2.22-.67-3.5-.67s-2.41.22-3.45.67c-1.04.45-1.95,1.11-2.72,1.99s-1.36,1.96-1.78,3.26c-.42,1.3-.62,2.79-.62,4.48v1.75c0,1.69.21,3.18.62,4.47.41,1.3,1.01,2.39,1.79,3.26.78.88,1.69,1.54,2.74,1.98,1.05.44,2.2.66,3.46.66s2.43-.22,3.47-.66c1.04-.44,1.95-1.1,2.72-1.98s1.36-1.96,1.78-3.26c.41-1.3.62-2.79.62-4.47v-1.75c0-1.69-.21-3.18-.62-4.48-.42-1.3-1.01-2.38-1.78-3.26ZM331.88,248.9c0,1.08-.08,2.03-.24,2.84s-.4,1.48-.73,2.02-.74.94-1.22,1.2-1.06.4-1.72.4c-.59,0-1.12-.13-1.61-.4-.48-.27-.9-.67-1.24-1.2s-.62-1.21-.8-2.02-.28-1.76-.28-2.84v-1.75c0-1.07.09-2.01.28-2.82s.46-1.49.8-2.03.76-.95,1.23-1.21,1-.4,1.58-.4,1.13.13,1.62.4c.49.27.91.67,1.25,1.21s.62,1.22.8,2.03.28,1.75.28,2.82v1.75Z"/><path class="cls-1" d="M349,236.76c-.87,0-1.63.25-2.29.74-.62.47-1.14,1.12-1.57,1.93l-.12-2.27h-4.46v21.71h4.68v-14.87c.17-.45.37-.87.62-1.21.32-.43.72-.76,1.18-.98.47-.23,1.02-.34,1.67-.34.29,0,.59.01.89.03.3.02.58.06.85.13l.02-4.62c-.13-.07-.35-.13-.66-.18-.31-.05-.58-.08-.82-.08Z"/><polygon class="cls-1" points="367.26 229.66 363.51 229.66 363.51 258.88 368.38 258.88 368.38 246.5 377.85 246.5 377.85 242.4 368.38 242.4 368.38 233.75 379.22 233.75 379.22 229.66 368.38 229.66 367.26 229.66"/><path class="cls-1" d="M396.49,239.42c-.77-.88-1.68-1.54-2.73-1.99-1.05-.45-2.22-.67-3.5-.67s-2.41.22-3.45.67c-1.04.45-1.95,1.11-2.72,1.99s-1.36,1.96-1.78,3.26c-.42,1.3-.62,2.79-.62,4.48v1.75c0,1.69.21,3.18.62,4.47.41,1.3,1.01,2.39,1.79,3.26.78.88,1.69,1.54,2.74,1.98,1.05.44,2.2.66,3.46.66s2.43-.22,3.47-.66c1.04-.44,1.95-1.1,2.72-1.98s1.36-1.96,1.78-3.26c.41-1.3.62-2.79.62-4.47v-1.75c0-1.69-.21-3.18-.62-4.48-.42-1.3-1.01-2.38-1.78-3.26ZM394.21,248.9c0,1.08-.08,2.03-.24,2.84s-.4,1.48-.73,2.02-.74.94-1.22,1.2-1.06.4-1.72.4c-.59,0-1.12-.13-1.61-.4-.48-.27-.9-.67-1.24-1.2s-.62-1.21-.8-2.02-.28-1.76-.28-2.84v-1.75c0-1.07.09-2.01.28-2.82s.46-1.49.8-2.03.76-.95,1.23-1.21,1-.4,1.58-.4,1.13.13,1.62.4c.49.27.91.67,1.25,1.21s.62,1.22.8,2.03.28,1.75.28,2.82v1.75Z"/><path class="cls-1" d="M411.33,236.76c-.87,0-1.63.25-2.29.74-.62.47-1.14,1.12-1.57,1.93l-.12-2.27h-4.46v21.71h4.68v-14.87c.17-.45.37-.87.62-1.21.32-.43.72-.76,1.18-.98.47-.23,1.02-.34,1.67-.34.29,0,.59.01.89.03.3.02.58.06.85.13l.02-4.62c-.13-.07-.35-.13-.66-.18-.31-.05-.58-.08-.82-.08Z"/><path class="cls-1" d="M429.46,239.41c-.65-.88-1.47-1.55-2.48-1.99-1-.44-2.19-.66-3.55-.66-1.2,0-2.32.21-3.34.62-1.02.42-1.91,1.05-2.66,1.91-.75.86-1.33,1.95-1.76,3.28-.42,1.33-.63,2.91-.63,4.75v2.09c0,1.62.2,3.04.6,4.26.4,1.22.98,2.25,1.75,3.09s1.69,1.46,2.79,1.89c1.1.42,2.35.63,3.75.63,1.24,0,2.33-.16,3.26-.48s1.72-.73,2.38-1.23,1.18-1.01,1.57-1.54l-2.07-2.87c-.58.66-1.25,1.19-2.04,1.6-.78.41-1.72.61-2.8.61-.74,0-1.38-.11-1.94-.33-.56-.22-1.03-.57-1.42-1.04-.39-.47-.68-1.09-.87-1.84-.19-.73-.28-1.61-.29-2.65h11.66v-2.35c0-1.69-.16-3.18-.47-4.48-.31-1.3-.8-2.39-1.45-3.27ZM426.76,245.98h-7c.04-.67.1-1.28.2-1.8.16-.85.39-1.53.69-2.04.3-.51.69-.88,1.15-1.1.47-.23,1-.34,1.61-.34.83,0,1.48.19,1.96.57.47.38.82.93,1.03,1.65.21.72.33,1.57.36,2.56v.5Z"/><path class="cls-1" d="M446.85,247.82c-.96-.6-2.17-1.18-3.63-1.75-.74-.31-1.34-.58-1.82-.82-.48-.24-.85-.48-1.13-.71-.28-.23-.48-.48-.6-.73-.12-.25-.18-.55-.18-.88,0-.46.1-.87.29-1.23.19-.37.49-.66.88-.88s.89-.33,1.48-.33c.64,0,1.17.14,1.58.41.42.27.72.64.92,1.08.2.45.3.95.3,1.5h4.68c0-1.31-.3-2.47-.89-3.48-.59-1.01-1.45-1.8-2.57-2.37-1.12-.57-2.46-.85-4.02-.85-1.11,0-2.11.16-2.99.49s-1.64.78-2.27,1.36c-.63.58-1.11,1.25-1.45,2.02s-.5,1.59-.5,2.49.14,1.63.42,2.29c.28.66.69,1.23,1.22,1.74.54.5,1.19.96,1.97,1.37.78.42,1.67.83,2.67,1.24.96.4,1.73.78,2.31,1.12.58.35.99.7,1.25,1.05s.39.76.39,1.21c0,.5-.11.92-.33,1.29-.22.36-.55.63-.97.81-.43.18-.97.27-1.63.27-.55,0-1.08-.09-1.58-.27s-.93-.51-1.25-.99c-.33-.48-.51-1.15-.55-2.01h-4.52c0,1.19.3,2.32.9,3.39.6,1.07,1.49,1.94,2.66,2.62,1.17.68,2.61,1.01,4.3,1.01,1.14,0,2.17-.15,3.1-.45.93-.3,1.73-.73,2.39-1.29.66-.56,1.17-1.23,1.53-2.01.35-.78.53-1.65.53-2.61,0-1.19-.24-2.19-.72-2.99s-1.2-1.5-2.17-2.11Z"/><path class="cls-1" d="M461.28,255.23c-.36,0-.68-.06-.94-.18s-.47-.35-.62-.7-.22-.86-.22-1.53v-12.04h3.09v-3.61h-3.09v-5.32h-4.66v5.32h-2.91v3.61h2.91v12.36c0,1.5.21,2.7.64,3.6.43.9,1.02,1.55,1.77,1.95s1.6.59,2.55.59c.64,0,1.19-.05,1.65-.14s.86-.21,1.2-.34v-3.77c-.12.04-.31.08-.57.13-.26.05-.53.07-.79.07Z"/><path class="cls-1" d="M491.49,245.58c-.66-.74-1.5-1.42-2.52-2.02-1.02-.6-2.21-1.15-3.57-1.65-.8-.29-1.51-.6-2.13-.92-.62-.32-1.14-.66-1.57-1.02-.43-.36-.76-.76-.98-1.19-.23-.43-.34-.92-.34-1.45,0-.78.14-1.47.41-2.07.27-.6.7-1.08,1.28-1.42s1.32-.52,2.22-.52c.98,0,1.77.21,2.39.62.62.41,1.07.99,1.37,1.73.29.74.44,1.58.44,2.53h4.86c0-1.65-.36-3.14-1.07-4.5-.72-1.35-1.75-2.43-3.09-3.23-1.34-.8-2.96-1.2-4.85-1.2-1.31,0-2.51.2-3.59.59-1.08.39-2.02.95-2.8,1.67-.78.72-1.38,1.57-1.81,2.55-.42.98-.63,2.07-.63,3.26s.21,2.26.64,3.17c.43.91,1.02,1.7,1.78,2.38s1.63,1.28,2.63,1.81,2.07,1.01,3.22,1.46c1,.39,1.82.77,2.46,1.14.63.38,1.13.76,1.47,1.14.35.39.58.82.71,1.29.13.47.19,1.01.19,1.62,0,.78-.14,1.46-.42,2.05-.28.59-.71,1.05-1.29,1.38s-1.33.49-2.24.49c-.74,0-1.4-.1-2-.29-.6-.19-1.11-.5-1.54-.92-.44-.42-.77-.96-.99-1.62s-.34-1.46-.34-2.4h-4.88c0,1.57.26,2.93.79,4.09s1.25,2.13,2.16,2.9,1.94,1.34,3.1,1.72c1.16.37,2.37.56,3.62.56,1.37,0,2.6-.19,3.69-.57,1.1-.38,2.03-.92,2.81-1.62.78-.7,1.37-1.54,1.78-2.52s.61-2.08.61-3.28-.16-2.25-.49-3.19c-.33-.94-.82-1.78-1.48-2.52Z"/><path class="cls-1" d="M512,239.29c-.6-.86-1.33-1.49-2.22-1.91-.88-.41-1.91-.62-3.07-.62s-2.07.24-2.87.72c-.74.45-1.38,1.08-1.91,1.88l-.2-2.2h-4.27v30.06h4.66v-10.3c.5.68,1.08,1.23,1.76,1.63.81.48,1.76.72,2.86.72,1.16,0,2.18-.22,3.05-.66.87-.44,1.6-1.1,2.2-1.98.59-.88,1.05-1.96,1.35-3.26.31-1.3.46-2.8.46-4.5v-1.73c0-1.78-.15-3.32-.45-4.63-.3-1.3-.75-2.38-1.34-3.24ZM509.12,248.88c0,1.1-.07,2.05-.21,2.86-.14.81-.36,1.48-.66,2.02-.3.54-.69.94-1.17,1.2s-1.06.4-1.75.4c-.88,0-1.59-.21-2.14-.64-.46-.36-.8-.85-1.07-1.42v-10.52c.11-.22.23-.43.36-.61.32-.45.72-.8,1.18-1.05.47-.25,1.01-.38,1.62-.38.7,0,1.28.13,1.76.38.48.25.87.64,1.18,1.16.31.52.54,1.19.68,2,.14.81.21,1.77.21,2.88v1.73Z"/><path class="cls-1" d="M532.5,253.84v-10.13c0-1.66-.31-3-.93-4.02s-1.48-1.77-2.56-2.23c-1.08-.46-2.32-.69-3.71-.69-1.16,0-2.22.18-3.17.54s-1.76.86-2.43,1.49c-.67.63-1.18,1.34-1.54,2.15-.36.8-.53,1.64-.53,2.51h4.68c0-.56.11-1.06.32-1.5.21-.43.53-.78.95-1.03s.94-.38,1.56-.38,1.08.1,1.47.31c.39.21.7.54.9.99.21.46.31,1.06.31,1.81v2.01h-1.97c-1.44,0-2.71.17-3.78.52-1.08.35-1.97.84-2.68,1.47-.71.64-1.24,1.4-1.61,2.28-.36.88-.54,1.87-.54,2.95,0,1.34.27,2.49.81,3.44.54.96,1.29,1.69,2.24,2.2.95.51,2.03.76,3.25.76.84,0,1.59-.16,2.23-.47.64-.31,1.19-.73,1.65-1.23.21-.23.39-.47.56-.71,0,0,0,0,0,0,.11.82.27,1.49.48,2.01h4.76v-.32c-.23-.58-.4-1.25-.53-2.04-.13-.78-.19-1.67-.19-2.68ZM526.43,254.89c-.56.33-1.21.49-1.96.49-.55,0-1.01-.1-1.39-.31-.38-.21-.67-.53-.86-.95-.19-.43-.29-.98-.29-1.67,0-.56.1-1.08.29-1.54.19-.47.47-.87.84-1.19.37-.33.82-.58,1.35-.76s1.14-.27,1.81-.27h1.61v4.82c-.04.07-.07.13-.11.2-.3.47-.73.87-1.28,1.19Z"/><path class="cls-1" d="M544.74,255.23c-.36,0-.68-.06-.94-.18s-.47-.35-.62-.7-.22-.86-.22-1.53v-12.04h3.09v-3.61h-3.09v-5.32h-4.66v5.32h-2.91v3.61h2.91v12.36c0,1.5.21,2.7.64,3.6.43.9,1.02,1.55,1.77,1.95s1.6.59,2.55.59c.64,0,1.19-.05,1.65-.14s.86-.21,1.2-.34v-3.77c-.12.04-.31.08-.57.13-.26.05-.53.07-.79.07Z"/><rect class="cls-1" x="549.96" y="237.16" width="4.68" height="21.71"/><path class="cls-1" d="M552.31,228.86c-.82,0-1.45.25-1.91.74s-.68,1.12-.68,1.87.23,1.35.68,1.85,1.09.74,1.91.74,1.45-.25,1.91-.74c.45-.5.68-1.11.68-1.85s-.23-1.37-.68-1.87c-.46-.5-1.09-.74-1.91-.74Z"/><path class="cls-1" d="M574.36,253.84v-10.13c0-1.66-.31-3-.93-4.02s-1.48-1.77-2.56-2.23c-1.08-.46-2.32-.69-3.71-.69-1.16,0-2.22.18-3.17.54s-1.76.86-2.43,1.49c-.67.63-1.18,1.34-1.54,2.15-.36.8-.53,1.64-.53,2.51h4.68c0-.56.11-1.06.32-1.5.21-.43.53-.78.95-1.03s.94-.38,1.56-.38,1.08.1,1.47.31c.39.21.7.54.9.99.21.46.31,1.06.31,1.81v2.01h-1.97c-1.44,0-2.71.17-3.78.52-1.08.35-1.97.84-2.68,1.47-.71.64-1.24,1.4-1.61,2.28-.36.88-.54,1.87-.54,2.95,0,1.34.27,2.49.81,3.44.54.96,1.29,1.69,2.24,2.2.95.51,2.03.76,3.25.76.84,0,1.59-.16,2.23-.47.64-.31,1.19-.73,1.65-1.23.21-.23.39-.47.56-.71,0,0,0,0,0,0,.11.82.27,1.49.48,2.01h4.76v-.32c-.23-.58-.4-1.25-.53-2.04-.13-.78-.19-1.67-.19-2.68ZM568.29,254.89c-.56.33-1.21.49-1.96.49-.55,0-1.01-.1-1.39-.31-.38-.21-.67-.53-.86-.95-.19-.43-.29-.98-.29-1.67,0-.56.1-1.08.29-1.54.19-.47.47-.87.84-1.19.37-.33.82-.58,1.35-.76s1.14-.27,1.81-.27h1.61v4.82c-.04.07-.07.13-.11.2-.3.47-.73.87-1.28,1.19Z"/><rect class="cls-1" x="579.42" y="228.05" width="4.68" height="30.82"/><path class="cls-1" d="M609.26,229.66h-3.17l-9.27,29.22h5.1l1.9-6.76h8.91l1.9,6.76h5.12l-9.31-29.22h-1.16ZM604.96,248.02l3.3-11.77,3.31,11.77h-6.61Z"/><path class="cls-1" d="M635.99,238.59c-.51-.64-1.12-1.11-1.84-1.39-.72-.29-1.51-.43-2.38-.43-1.11,0-2.12.25-3.02.75-.82.45-1.52,1.09-2.12,1.88l-.14-2.24h-4.39v21.71h4.68v-15.71c.08-.17.16-.36.25-.51.35-.6.78-1.06,1.28-1.41s1.05-.51,1.66-.51c.66,0,1.2.13,1.63.39.43.26.75.69.97,1.28.22.6.33,1.4.33,2.42v14.05h4.68v-14.01c0-1.48-.14-2.74-.41-3.77s-.67-1.87-1.17-2.51Z"/><path class="cls-1" d="M657,253.84v-10.13c0-1.66-.31-3-.93-4.02s-1.48-1.77-2.56-2.23c-1.08-.46-2.32-.69-3.71-.69-1.16,0-2.22.18-3.17.54s-1.76.86-2.43,1.49c-.67.63-1.18,1.34-1.54,2.15-.36.8-.53,1.64-.53,2.51h4.68c0-.56.11-1.06.32-1.5.21-.43.53-.78.95-1.03s.94-.38,1.56-.38,1.08.1,1.47.31c.39.21.7.54.9.99.21.46.31,1.06.31,1.81v2.01h-1.97c-1.44,0-2.71.17-3.78.52-1.08.35-1.97.84-2.68,1.47-.71.64-1.24,1.4-1.61,2.28-.36.88-.54,1.87-.54,2.95,0,1.34.27,2.49.81,3.44.54.96,1.29,1.69,2.24,2.2.95.51,2.03.76,3.25.76.84,0,1.59-.16,2.23-.47.64-.31,1.19-.73,1.65-1.23.21-.23.39-.47.56-.71,0,0,0,0,0,0,.11.82.27,1.49.48,2.01h4.76v-.32c-.23-.58-.4-1.25-.53-2.04-.13-.78-.19-1.67-.19-2.68ZM650.93,254.89c-.56.33-1.21.49-1.96.49-.55,0-1.01-.1-1.39-.31-.38-.21-.67-.53-.86-.95-.19-.43-.29-.98-.29-1.67,0-.56.1-1.08.29-1.54.19-.47.47-.87.84-1.19.37-.33.82-.58,1.35-.76s1.14-.27,1.81-.27h1.61v4.82c-.04.07-.07.13-.11.2-.3.47-.73.87-1.28,1.19Z"/><rect class="cls-1" x="662.06" y="228.05" width="4.68" height="30.82"/><path class="cls-1" d="M678.25,251.26l-3.33-14.1h-5.04l6.33,21.78-.55,1.76c-.21.7-.46,1.25-.74,1.68-.28.42-.64.73-1.06.92s-.97.29-1.62.29c-.11,0-.23,0-.36-.02-.13-.01-.25-.03-.36-.04v3.77c.32.09.66.17,1,.24.35.07.71.1,1.08.1.91,0,1.7-.18,2.36-.53.66-.35,1.22-.82,1.67-1.38.45-.57.82-1.17,1.1-1.8.29-.63.51-1.22.67-1.77l7.16-25h-4.92l-3.4,14.1Z"/><path class="cls-1" d="M701.21,247.82c-.96-.6-2.17-1.18-3.63-1.75-.74-.31-1.34-.58-1.82-.82-.48-.24-.85-.48-1.13-.71-.28-.23-.48-.48-.6-.73-.12-.25-.18-.55-.18-.88,0-.46.1-.87.29-1.23.19-.37.49-.66.88-.88s.89-.33,1.48-.33c.64,0,1.17.14,1.58.41.42.27.72.64.92,1.08.2.45.3.95.3,1.5h4.68c0-1.31-.3-2.47-.89-3.48-.59-1.01-1.45-1.8-2.57-2.37-1.12-.57-2.46-.85-4.02-.85-1.11,0-2.11.16-2.99.49s-1.64.78-2.27,1.36c-.63.58-1.11,1.25-1.45,2.02s-.5,1.59-.5,2.49.14,1.63.42,2.29c.28.66.69,1.23,1.22,1.74.54.5,1.19.96,1.97,1.37.78.42,1.67.83,2.67,1.24.96.4,1.73.78,2.31,1.12.58.35.99.7,1.25,1.05s.39.76.39,1.21c0,.5-.11.92-.33,1.29-.22.36-.55.63-.97.81-.43.18-.97.27-1.63.27-.55,0-1.08-.09-1.58-.27s-.93-.51-1.25-.99c-.33-.48-.51-1.15-.55-2.01h-4.52c0,1.19.3,2.32.9,3.39.6,1.07,1.49,1.94,2.66,2.62,1.17.68,2.61,1.01,4.3,1.01,1.14,0,2.17-.15,3.1-.45.93-.3,1.73-.73,2.39-1.29.66-.56,1.17-1.23,1.53-2.01.35-.78.53-1.65.53-2.61,0-1.19-.24-2.19-.72-2.99s-1.2-1.5-2.17-2.11Z"/><path class="cls-1" d="M710.81,228.86c-.82,0-1.45.25-1.91.74s-.68,1.12-.68,1.87.23,1.35.68,1.85,1.09.74,1.91.74,1.45-.25,1.91-.74c.45-.5.68-1.11.68-1.85s-.23-1.37-.68-1.87c-.46-.5-1.09-.74-1.91-.74Z"/><rect class="cls-1" x="708.46" y="237.16" width="4.68" height="21.71"/><path class="cls-1" d="M729.85,247.82c-.96-.6-2.17-1.18-3.63-1.75-.74-.31-1.34-.58-1.82-.82-.48-.24-.85-.48-1.13-.71-.28-.23-.48-.48-.6-.73-.12-.25-.18-.55-.18-.88,0-.46.1-.87.29-1.23.19-.37.49-.66.88-.88s.89-.33,1.48-.33c.64,0,1.17.14,1.58.41.42.27.72.64.92,1.08.2.45.3.95.3,1.5h4.68c0-1.31-.3-2.47-.89-3.48-.59-1.01-1.45-1.8-2.57-2.37-1.12-.57-2.46-.85-4.02-.85-1.11,0-2.11.16-2.99.49s-1.64.78-2.27,1.36c-.63.58-1.11,1.25-1.45,2.02s-.5,1.59-.5,2.49.14,1.63.42,2.29c.28.66.69,1.23,1.22,1.74.54.5,1.19.96,1.97,1.37.78.42,1.67.83,2.67,1.24.96.4,1.73.78,2.31,1.12.58.35.99.7,1.25,1.05s.39.76.39,1.21c0,.5-.11.92-.33,1.29-.22.36-.55.63-.97.81-.43.18-.97.27-1.63.27-.55,0-1.08-.09-1.58-.27s-.93-.51-1.25-.99c-.33-.48-.51-1.15-.55-2.01h-4.52c0,1.19.3,2.32.9,3.39.6,1.07,1.49,1.94,2.66,2.62,1.17.68,2.61,1.01,4.3,1.01,1.14,0,2.17-.15,3.1-.45.93-.3,1.73-.73,2.39-1.29.66-.56,1.17-1.23,1.53-2.01.35-.78.53-1.65.53-2.61,0-1.19-.24-2.19-.72-2.99s-1.2-1.5-2.17-2.11Z"/><polygon class="cls-1" points="751.38 229.66 744.02 229.66 744.02 233.75 751.38 233.75 751.38 258.88 756.24 258.88 756.24 233.75 763.68 233.75 763.68 229.66 756.24 229.66 751.38 229.66"/><path class="cls-1" d="M779.09,239.41c-.65-.88-1.47-1.55-2.48-1.99-1-.44-2.19-.66-3.55-.66-1.2,0-2.32.21-3.34.62-1.02.42-1.91,1.05-2.66,1.91-.75.86-1.33,1.95-1.76,3.28-.42,1.33-.63,2.91-.63,4.75v2.09c0,1.62.2,3.04.6,4.26.4,1.22.98,2.25,1.75,3.09s1.69,1.46,2.79,1.89c1.1.42,2.35.63,3.75.63,1.24,0,2.33-.16,3.26-.48s1.72-.73,2.38-1.23,1.18-1.01,1.57-1.54l-2.07-2.87c-.58.66-1.25,1.19-2.04,1.6-.78.41-1.72.61-2.8.61-.74,0-1.38-.11-1.94-.33-.56-.22-1.03-.57-1.42-1.04-.39-.47-.68-1.09-.87-1.84-.19-.73-.28-1.61-.29-2.65h11.66v-2.35c0-1.69-.16-3.18-.47-4.48-.31-1.3-.8-2.39-1.45-3.27ZM776.39,245.98h-7c.04-.67.1-1.28.2-1.8.16-.85.39-1.53.69-2.04.3-.51.69-.88,1.15-1.1.47-.23,1-.34,1.61-.34.83,0,1.48.19,1.96.57.47.38.82.93,1.03,1.65.21.72.33,1.57.36,2.56v.5Z"/><path class="cls-1" d="M788.88,244.38c.1-.78.28-1.45.54-2,.26-.55.63-.97,1.12-1.25s1.11-.43,1.88-.43c.7,0,1.27.16,1.74.48.46.32.82.8,1.07,1.43.25.64.39,1.42.42,2.36h4.4c-.03-1.77-.35-3.26-.98-4.48-.63-1.22-1.5-2.14-2.62-2.78-1.12-.63-2.44-.95-3.96-.95-1.43,0-2.68.23-3.73.69-1.06.46-1.93,1.13-2.63,2.02-.7.88-1.21,1.96-1.55,3.23-.34,1.27-.51,2.72-.51,4.33v1.97c0,1.63.17,3.08.51,4.34.34,1.26.86,2.34,1.55,3.22s1.58,1.55,2.64,2.02c1.06.46,2.31.69,3.74.69s2.63-.31,3.76-.93,2.04-1.5,2.72-2.65c.68-1.14,1.04-2.49,1.06-4.02h-4.4c-.03.87-.18,1.58-.46,2.12-.28.54-.66.94-1.13,1.19-.48.25-1.01.38-1.62.38-.78,0-1.41-.14-1.91-.42-.5-.28-.87-.7-1.13-1.24-.26-.55-.44-1.21-.53-2-.09-.78-.14-1.68-.14-2.7v-1.97c0-.99.05-1.88.15-2.66Z"/><path class="cls-1" d="M817.46,238.63c-.53-.64-1.16-1.11-1.89-1.41-.73-.3-1.54-.45-2.44-.45-1.08,0-2.07.26-2.96.77-.72.42-1.35.98-1.9,1.68v-11.16h-4.66v30.82h4.66v-15.76c.07-.15.14-.32.22-.47.35-.6.77-1.06,1.27-1.41s1.07-.51,1.72-.51,1.2.13,1.63.4c.43.27.75.7.97,1.3.22.6.33,1.42.33,2.45v13.99h4.68v-13.95c0-1.49-.14-2.75-.42-3.78-.28-1.04-.69-1.88-1.21-2.52Z"/><path class="cls-1" d="M837.56,238.59c-.51-.64-1.12-1.11-1.84-1.39-.72-.29-1.51-.43-2.38-.43-1.11,0-2.12.25-3.02.75-.82.45-1.52,1.09-2.12,1.88l-.14-2.24h-4.39v21.71h4.68v-15.71c.08-.17.16-.36.25-.51.35-.6.78-1.06,1.28-1.41s1.05-.51,1.66-.51c.66,0,1.2.13,1.63.39.43.26.75.69.97,1.28.22.6.33,1.4.33,2.42v14.05h4.68v-14.01c0-1.48-.14-2.74-.41-3.77s-.67-1.87-1.17-2.51Z"/><path class="cls-1" d="M857.93,239.42c-.77-.88-1.68-1.54-2.73-1.99-1.05-.45-2.22-.67-3.5-.67s-2.41.22-3.45.67c-1.04.45-1.95,1.11-2.72,1.99s-1.36,1.96-1.78,3.26c-.42,1.3-.62,2.79-.62,4.48v1.75c0,1.69.21,3.18.62,4.47.41,1.3,1.01,2.39,1.79,3.26.78.88,1.69,1.54,2.74,1.98,1.05.44,2.2.66,3.46.66s2.43-.22,3.47-.66c1.04-.44,1.95-1.1,2.72-1.98s1.36-1.96,1.78-3.26c.41-1.3.62-2.79.62-4.47v-1.75c0-1.69-.21-3.18-.62-4.48-.42-1.3-1.01-2.38-1.78-3.26ZM855.66,248.9c0,1.08-.08,2.03-.24,2.84s-.4,1.48-.73,2.02-.74.94-1.22,1.2-1.06.4-1.72.4c-.59,0-1.12-.13-1.61-.4-.48-.27-.9-.67-1.24-1.2s-.62-1.21-.8-2.02-.28-1.76-.28-2.84v-1.75c0-1.07.09-2.01.28-2.82s.46-1.49.8-2.03.76-.95,1.23-1.21,1-.4,1.58-.4,1.13.13,1.62.4c.49.27.91.67,1.25,1.21s.62,1.22.8,2.03.28,1.75.28,2.82v1.75Z"/><rect class="cls-1" x="864.63" y="228.05" width="4.68" height="30.82"/><path class="cls-1" d="M888.4,239.42c-.77-.88-1.68-1.54-2.73-1.99-1.05-.45-2.22-.67-3.5-.67s-2.41.22-3.45.67c-1.04.45-1.95,1.11-2.72,1.99s-1.36,1.96-1.78,3.26c-.42,1.3-.62,2.79-.62,4.48v1.75c0,1.69.21,3.18.62,4.47.41,1.3,1.01,2.39,1.79,3.26.78.88,1.69,1.54,2.74,1.98,1.05.44,2.2.66,3.46.66s2.43-.22,3.47-.66c1.04-.44,1.95-1.1,2.72-1.98s1.36-1.96,1.78-3.26c.41-1.3.62-2.79.62-4.47v-1.75c0-1.69-.21-3.18-.62-4.48-.42-1.3-1.01-2.38-1.78-3.26ZM886.12,248.9c0,1.08-.08,2.03-.24,2.84s-.4,1.48-.73,2.02-.74.94-1.22,1.2-1.06.4-1.72.4c-.59,0-1.12-.13-1.61-.4-.48-.27-.9-.67-1.24-1.2s-.62-1.21-.8-2.02-.28-1.76-.28-2.84v-1.75c0-1.07.09-2.01.28-2.82s.46-1.49.8-2.03.76-.95,1.23-1.21,1-.4,1.58-.4,1.13.13,1.62.4c.49.27.91.67,1.25,1.21s.62,1.22.8,2.03.28,1.75.28,2.82v1.75Z"/><path class="cls-1" d="M906.19,239.31c-.49-.77-1.09-1.38-1.82-1.81-.81-.49-1.8-.73-2.96-.73s-2.14.21-3.05.62c-.91.42-1.68,1.06-2.31,1.93-.63.87-1.11,1.96-1.44,3.26-.33,1.3-.5,2.85-.5,4.63v1.71c0,1.71.17,3.21.5,4.5.33,1.29.82,2.37,1.46,3.24.63.87,1.4,1.53,2.3,1.97.9.44,1.9.66,3.01.66s2.06-.24,2.86-.73c.65-.4,1.21-.94,1.7-1.61v2.12c0,1.12-.16,2.02-.48,2.68-.32.66-.78,1.14-1.38,1.42-.6.29-1.32.43-2.18.43-.79,0-1.61-.18-2.47-.53-.86-.36-1.6-.85-2.23-1.5l-1.71,3.25c.54.58,1.2,1.06,2.01,1.44s1.63.68,2.47.88c.84.2,1.57.3,2.19.3,1.67,0,3.14-.3,4.41-.9,1.27-.6,2.26-1.53,2.98-2.78s1.07-2.85,1.07-4.81v-21.79h-4.23l-.2,2.15ZM904.85,254.62c-.55.43-1.28.64-2.18.64-.68,0-1.27-.12-1.77-.37-.5-.25-.9-.63-1.2-1.14-.31-.52-.54-1.17-.69-1.98-.15-.8-.23-1.76-.23-2.87v-1.71c0-1.11.08-2.07.23-2.88.15-.81.39-1.48.71-2.01.32-.53.73-.92,1.23-1.18s1.09-.39,1.76-.39,1.2.13,1.68.39c.47.26.88.62,1.2,1.07.12.17.23.36.33.56v10.51c-.28.54-.63,1.01-1.07,1.36Z"/><path class="cls-1" d="M917.93,228.86c-.82,0-1.45.25-1.91.74s-.68,1.12-.68,1.87.23,1.35.68,1.85,1.09.74,1.91.74,1.45-.25,1.91-.74c.45-.5.68-1.11.68-1.85s-.23-1.37-.68-1.87c-.46-.5-1.09-.74-1.91-.74Z"/><rect class="cls-1" x="915.58" y="237.16" width="4.68" height="21.71"/><path class="cls-1" d="M939.07,239.41c-.65-.88-1.47-1.55-2.48-1.99-1-.44-2.19-.66-3.55-.66-1.2,0-2.32.21-3.34.62-1.02.42-1.91,1.05-2.66,1.91-.75.86-1.33,1.95-1.76,3.28-.42,1.33-.63,2.91-.63,4.75v2.09c0,1.62.2,3.04.6,4.26.4,1.22.98,2.25,1.75,3.09s1.69,1.46,2.79,1.89c1.1.42,2.35.63,3.75.63,1.24,0,2.33-.16,3.26-.48s1.72-.73,2.38-1.23,1.18-1.01,1.57-1.54l-2.07-2.87c-.58.66-1.25,1.19-2.04,1.6-.78.41-1.72.61-2.8.61-.74,0-1.38-.11-1.94-.33-.56-.22-1.03-.57-1.42-1.04-.39-.47-.68-1.09-.87-1.84-.19-.73-.28-1.61-.29-2.65h11.66v-2.35c0-1.69-.16-3.18-.47-4.48-.31-1.3-.8-2.39-1.45-3.27ZM936.37,245.98h-7c.04-.67.1-1.28.2-1.8.16-.85.39-1.53.69-2.04.3-.51.69-.88,1.15-1.1.47-.23,1-.34,1.61-.34.83,0,1.48.19,1.96.57.47.38.82.93,1.03,1.65.21.72.33,1.57.36,2.56v.5Z"/><path class="cls-1" d="M958.63,249.93c-.48-.8-1.2-1.5-2.17-2.11-.96-.6-2.17-1.18-3.63-1.75-.74-.31-1.34-.58-1.82-.82-.48-.24-.85-.48-1.13-.71-.28-.23-.48-.48-.6-.73-.12-.25-.18-.55-.18-.88,0-.46.1-.87.29-1.23.19-.37.49-.66.88-.88s.89-.33,1.48-.33c.64,0,1.17.14,1.58.41.42.27.72.64.92,1.08.2.45.3.95.3,1.5h4.68c0-1.31-.3-2.47-.89-3.48-.59-1.01-1.45-1.8-2.57-2.37-1.12-.57-2.46-.85-4.02-.85-1.11,0-2.11.16-2.99.49s-1.64.78-2.27,1.36c-.63.58-1.11,1.25-1.45,2.02s-.5,1.59-.5,2.49.14,1.63.42,2.29c.28.66.69,1.23,1.22,1.74.54.5,1.19.96,1.97,1.37.78.42,1.67.83,2.67,1.24.96.4,1.73.78,2.31,1.12.58.35.99.7,1.25,1.05s.39.76.39,1.21c0,.5-.11.92-.33,1.29-.22.36-.55.63-.97.81-.43.18-.97.27-1.63.27-.55,0-1.08-.09-1.58-.27s-.93-.51-1.25-.99c-.33-.48-.51-1.15-.55-2.01h-4.52c0,1.19.3,2.32.9,3.39.6,1.07,1.49,1.94,2.66,2.62,1.17.68,2.61,1.01,4.3,1.01,1.14,0,2.17-.15,3.1-.45.93-.3,1.73-.73,2.39-1.29.66-.56,1.17-1.23,1.53-2.01.35-.78.53-1.65.53-2.61,0-1.19-.24-2.19-.72-2.99Z"/></svg>