<?xml version="1.0" encoding="UTF-8"?><svg id="Layer_1" xmlns="http://www.w3.org/2000/svg" xmlns:xlink="http://www.w3.org/1999/xlink" viewBox="0 0 952.53 188.02"><defs><style>.cls-1{fill:#fff;}.cls-2{fill:url(#linear-gradient);}.cls-3{fill:#a6ce39;}</style><linearGradient id="linear-gradient" x1="103.1" y1="98.88" x2="103.12" y2="98.88" gradientUnits="userSpaceOnUse"><stop offset="0" stop-color="#9cc63d"/><stop offset="1" stop-color="#667c4b"/></linearGradient></defs><path class="cls-1" d="M596.32,48.31c-10.22,45.76-20.41,91.07-30.35,137.08h9.95c3.18-13.99,6.27-27.61,9.39-41.35h35.77c3.14,13.83,6.23,27.46,9.38,41.39h10.28c-10.26-46.12-20.37-91.61-30.5-137.12h-13.92ZM587.65,132.98c5.1-23.03,10.08-45.66,15.07-68.17h1.04c4.99,22.48,9.85,44.97,15,68.17h-31.11Z"/><path class="cls-1" d="M525.22,57.23c10.44-.65,19.81,6.95,21.27,17.22.21,1.49.61,2.96.94,4.48h10.09c-.99-4.49-1.43-8.13-2.59-11.53-4.5-13.15-16.22-20.59-30.83-19.85-12.49.63-24.46,10.51-26.94,23.1-1.51,7.62-1.27,15.37,2.22,22.72,2.99,6.3,6.97,11.83,12.19,16.4,6.74,5.91,13.68,11.59,20.49,17.43,8.29,7.11,14.03,15.54,14.88,26.9.66,8.91-4.56,17.75-13.28,21.27-7.83,3.16-18.38.84-23.31-6.26-2.8-4.02-4.38-6.82-4.98-14.27h-8.89s0,1.12,0,1.44c-.25,12.87,8.08,25.01,20.84,28.58,13.17,3.68,24.81.86,33.39-10.56,8.98-11.95,7.8-26.94.13-40.23-3.82-6.62-9.24-11.91-15.05-16.83-7.11-6.02-14.28-11.98-21.03-18.38-6.31-5.99-9.02-13.64-8.58-22.43.5-9.95,8.93-18.55,19.07-19.19Z"/><path class="cls-1" d="M350.73,154.95h-10.7c-.66,2.75-1.1,5.13-1.81,7.42-2.65,8.56-9.8,13.32-18.77,13.23-9.34-.1-16.62-6.37-17.92-15.51-.91-6.42-.8-12.99-1.16-19.68,2.6-1.02,4.16-1.63,5.72-2.24,10.45-4.11,21.09-7.81,31.31-12.44,11.14-5.06,15.19-14.29,12.43-25.8-3.48-14.51-18.25-25.48-31.99-23.76-16.71,2.09-28.02,14.29-28.07,30.4-.05,16.68-.02,33.35,0,50.03,0,2.05-.03,4.16.39,6.15,2.93,13.93,15.56,24.08,29.93,24.16,14.35.08,26.83-9.99,29.81-24.19.51-2.43.53-4.96.82-7.77ZM301.68,102.33c1.32-9.22,10.27-15.36,19.75-14.69,9.47.67,17.39,8.63,17.87,17.86.19,3.7-1.06,6.59-4.26,8.55-1.12.68-2.22,1.4-3.4,1.98-1.68.83-3.38,1.63-5.13,2.28-8.23,3.06-16.47,6.07-26.23,9.65.45-9.3.26-17.56,1.41-25.63Z"/><path class="cls-1" d="M199.21,185.74c13.22-3.96,22.1-15.26,22.3-29.15.23-16.67.09-33.35,0-50.03-.01-2.22-.49-4.46-.99-6.64-3.78-16.31-18.6-24.65-31.35-23.7-16.59,1.23-28.62,14.29-28.76,30.4-.07,8.24-.01,16.49-.01,24.73h.01c0,8.81-.19,17.62.04,26.42.5,19.47,20.13,33.55,38.77,27.97ZM171.97,105.99c.15-10.91,8.53-18.61,19.25-18.37,10.51.23,18.59,8.42,18.7,19.1.04,4.11.05,8.23.04,12.34,0,4.11-.02,8.23-.02,12.34,0,4.21.02,8.42.02,12.62,0,4.21,0,8.42-.04,12.62-.12,10.56-8.25,19.06-18.83,18.96-12.1-.12-19.31-9.39-19.23-18.57.16-17.02-.13-34.04.11-51.05Z"/><path class="cls-1" d="M104.5,111.13h39.67v-11.59h-39.05v-49.34c8.35,0,24.04-.02,24.04-.02,7.78-.1,23.37-.41,23.37-.41v-10.58h-59.1v146.35h11.07v-74.4Z"/><path class="cls-1" d="M376.9,127.77c4.47,3.05,9.39,5.43,14.11,8.12,5.53,3.15,11.19,6.09,16.54,9.52,3.93,2.52,6.3,6.21,6.28,11.25-.04,10.14-7.88,18.73-18.36,18.95-11.08.23-18.31-7.69-19.55-15.95-.24-1.59-.52-3.18-.79-4.83h-10.93s-.16,0-.07,2.29c.02.56.06,1.13.13,1.68,1.64,11.29,6.85,20.22,17.49,25.12,10.74,4.94,21.29,3.97,30.93-2.78,15.75-11.02,16.88-30.96,2.59-43.77-2.76-2.47-5.97-4.53-9.21-6.36-5.71-3.22-11.71-5.93-17.37-9.23-3.52-2.06-6.85-4.58-9.83-7.36-1.5-1.4-2.6-3.77-2.89-5.84-1.45-10.27,6.11-19.56,16.69-20.89,10.05-1.26,19.55,5.98,21,15.98.23,1.6.57,3.19.84,4.68h10.72c0-2.04.13-3.52-.02-4.98-2.21-21.23-26.05-33.69-44.8-23.54-14.88,8.05-25.84,32.71-3.51,47.92Z"/><path class="cls-1" d="M633.49,48.29v10.07h25.99v63.75c0,10.55-.05,21.1.01,31.65.06,10.46-.29,20.94.24,31.56h10.52V58.14h26.02v-9.81l-62.79-.05Z"/><path class="cls-1" d="M450.11,77.16v-29h-10.81s.02,5.13.02,7.5c-.02,31.11-.02,62.21,0,93.32,0,3.75-.06,7.5.17,11.24.69,11.64,9.22,22.45,20.39,25.64,2.73.78,8.96,1.17,8.96,1.17v-11.19s-3.43-.4-5.05-.74c-4.95-1.05-8.7-3.92-10.6-8.4-1.57-3.7-2.82-7.85-2.87-11.82-.28-20.42-.14-40.85-.11-61.27,0-1.44.28-2.88.51-5.06h21.57v-11.38h-22.17Z"/><path class="cls-1" d="M259.96,90.65c3.23-1.86,7.37-2.3,11.17-2.98,2.83-.51,5.77-.38,8.72-.54v-10.45c-10.28-1.89-19.52-.09-28.15,5.28-.76-1.7-1.4-3.14-2.12-4.75h-16.56v10.78c2.35.57,4.11,1.01,6.41,1.57v95.95h11.45c0-2.83,0-5.03,0-7.24,0-23.79.1-47.57-.05-71.36-.05-7.34,3.13-12.81,9.13-16.26Z"/><path class="cls-2" d="M103.1,98.87s.02.01.02.02c0,0,0-.02-.01-.03h-.01Z"/><path class="cls-3" d="M45.61,36.38C74.62,2.89,122.6-8.8,164.02,6.87c13.62,4.99,26.16,12.73,36.72,22.54-10.85-9.49-23.55-16.79-37.15-21.32-40.67-14.02-86.89-1.62-114.04,31.67,0,0-3.93-3.38-3.93-3.38h0Z"/><path class="cls-3" d="M720.59,176.44l26.36-48.08c3.83-6.86,6.98-13.19,9.38-18.81,2.41-5.66,4.24-11.23,5.43-16.56,1.19-5.35,1.79-11.11,1.79-17.09,0-7.88-1.02-13.9-3.04-17.91-2.06-4.1-5.12-6.9-9.1-8.35-3.84-1.39-8.47-2.1-13.77-2.1-2.38,0-4.76.13-7.07.39-2.32.27-4.89.77-7.64,1.48-2.76.72-6.14,1.88-10.06,3.43l-.72.28.97,7.99,1.16-.39c3.45-1.15,6.5-2.02,9.06-2.59,2.55-.57,5.01-.95,7.31-1.14,2.32-.19,4.76-.29,7.24-.29,3.71,0,6.99.38,9.75,1.13,2.61.71,4.61,2.28,6.12,4.79,1.53,2.55,2.38,6.7,2.54,12.31.16,7.48-1.04,15.14-3.55,22.75-2.53,7.66-6.63,16.61-12.19,26.6l-28.07,51.21-.06.13c-.26.69-.47,1.32-.64,1.92-.19.67-.28,1.42-.28,2.31v5.85h55.58v-9.37h-41.09c-1.79,0-3.6.04-5.41.11Z"/><path class="cls-3" d="M818.68,55.28h0c-4.13-5.14-9.79-7.75-16.83-7.75s-12.58,2.61-16.71,7.74c-4.04,5.03-6.94,12.82-8.63,23.16-1.67,10.22-2.51,23.45-2.51,39.34s.85,28.97,2.51,39.24c1.69,10.41,4.59,18.23,8.63,23.26,4.12,5.14,9.75,7.74,16.71,7.74s12.7-2.61,16.83-7.74c4.04-5.02,6.94-12.85,8.63-23.26,1.67-10.29,2.51-23.5,2.51-39.24s-.85-29.11-2.51-39.34c-1.69-10.34-4.59-18.13-8.63-23.16ZM822.82,117.78c0,10.65-.37,19.99-1.09,27.74-.72,7.71-1.94,14.16-3.61,19.17-1.64,4.91-3.82,8.54-6.47,10.81-2.61,2.22-5.9,3.35-9.79,3.35s-7.06-1.13-9.67-3.35c-2.65-2.26-4.83-5.89-6.47-10.8-1.68-5.01-2.89-11.46-3.61-19.17-.73-7.76-1.09-17.09-1.09-27.74s.37-20.15,1.09-27.84c.72-7.65,1.94-14.06,3.61-19.07,1.64-4.91,3.82-8.54,6.47-10.81,2.61-2.22,5.86-3.35,9.67-3.35s7.18,1.13,9.79,3.35c2.65,2.26,4.83,5.9,6.47,10.81,1.68,5.01,2.89,11.43,3.61,19.07.73,7.69,1.09,17.06,1.09,27.84Z"/><path class="cls-3" d="M844.88,176.44l26.36-48.08c3.82-6.85,6.98-13.18,9.38-18.81,2.42-5.66,4.24-11.23,5.43-16.56,1.19-5.35,1.79-11.11,1.79-17.09,0-7.88-1.02-13.9-3.04-17.91-2.06-4.1-5.12-6.9-9.1-8.35-3.84-1.39-8.47-2.1-13.77-2.1-2.38,0-4.76.13-7.07.39-2.32.27-4.89.77-7.64,1.48-2.76.72-6.15,1.88-10.06,3.43l-.72.28.97,7.99,1.16-.39c3.45-1.15,6.5-2.02,9.06-2.59,2.55-.57,5.01-.95,7.31-1.14,2.32-.19,4.76-.29,7.24-.29,3.71,0,6.99.38,9.75,1.13,2.61.71,4.61,2.28,6.12,4.79,1.53,2.55,2.38,6.7,2.54,12.31.16,7.48-1.04,15.14-3.55,22.75-2.53,7.66-6.63,16.61-12.19,26.6l-28.07,51.21-.06.13c-.26.69-.47,1.32-.64,1.92-.19.66-.28,1.44-.28,2.31v5.85h55.58v-9.37h-41.09c-1.79,0-3.6.04-5.41.11Z"/><path class="cls-3" d="M950.43,116.99h0c-1.42-6.78-3.89-11.73-7.34-14.71-3.47-2.99-8.31-4.51-14.38-4.51-4.03,0-7.62.72-10.67,2.13-3.06,1.42-5.93,3.83-8.54,7.18-1.17,1.49-2.36,3.3-3.58,5.4.19-9.18.6-17.04,1.21-23.4.88-9.1,2.31-16.09,4.26-20.76,1.89-4.54,4.45-7.67,7.59-9.29,3.22-1.66,7.27-2.51,12.05-2.51,2.07,0,3.91.03,5.45.1,1.51.06,2.92.16,4.21.29,1.22.12,2.63.43,4.19.93l1.1.35,1.3-7.73-.72-.31c-3.11-1.33-6.13-2.11-8.99-2.31-2.78-.2-4.98-.29-6.54-.29-5.73,0-10.7.94-14.76,2.81-4.15,1.9-7.57,5.59-10.18,10.94-2.56,5.25-4.46,13.09-5.65,23.31-1.18,10.14-1.78,23.65-1.78,40.17,0,11.49.35,21.34,1.04,29.28.69,8,1.99,14.55,3.84,19.47,1.9,5.04,4.73,8.76,8.4,11.06,3.64,2.29,8.46,3.45,14.32,3.45s10.23-1.06,13.75-3.15c3.53-2.1,6.25-5.11,8.08-8.97,1.79-3.77,2.99-8.45,3.57-13.9.57-5.4.86-11.47.86-18.05,0-11.26-.71-20.33-2.1-26.97ZM945.64,143.38c0,7.67-.45,14.3-1.33,19.72-.86,5.26-2.67,9.28-5.39,11.96-2.68,2.64-6.9,3.98-12.54,3.98-4.65,0-8.36-.95-11.02-2.83-2.66-1.87-4.71-4.87-6.1-8.91-1.43-4.17-2.38-9.76-2.82-16.61-.44-6.92-.67-15.45-.67-25.35v-2.26c2.31-3.78,4.49-6.85,6.46-9.11,2.5-2.85,5.01-4.86,7.47-5.95,2.46-1.1,5.16-1.66,8.01-1.66,4.76,0,8.45,1.18,10.98,3.52,2.55,2.36,4.36,6.26,5.37,11.58,1.04,5.48,1.57,12.85,1.57,21.92Z"/><path class="cls-3" d="M47.71,181.98l-1.43-1.8c-.47-.61-.91-1.23-1.37-1.84-.92-1.22-1.77-2.49-2.64-3.72l-1.24-1.91-.62-.96-.58-.98c-3.19-5.16-5.79-10.62-7.92-16.24-2.11-5.6-3.67-11.38-4.73-17.24,7.51-3.56,15.89-8.7,20.57-15.5.71-1.1,1.38-2.24,1.8-3.48-.63,1.14-1.4,2.18-2.2,3.19-5.15,6.28-13.28,11.12-20.23,15.43-.04-.2-.07-.4-.1-.6,4.07-2.69,9.08-5.91,12.18-9.52,3.45-4.28,6.35-9.03,8.24-14.19-.64,1.21-1.3,2.4-2.03,3.55-2.49,4.03-5.13,8-8.31,11.51-2.69,2.91-6.96,5.7-10.14,8.32-.02-.14-.05-.27-.07-.41,4.63-4.28,10.01-9.22,13.22-14.53,2.12-3.73,4.07-7.62,5.8-11.54.31-.72.63-1.44.85-2.19-1.2,2.43-3.24,5.78-4.57,8.17-1.55,2.72-3.05,5.43-4.82,7.98-2.74,4.03-7.19,7.92-10.57,11.6-.03-.18-.06-.37-.08-.55,6.35-8.01,13.02-16.92,16.77-26.37-.69,1.23-1.37,2.47-2.08,3.69-2.03,3.54-4.18,7.53-6.3,10.99-2.25,3.71-5.96,7.42-8.47,11.1-.07-.47-.14-.95-.21-1.42,2.75-4.44,6.62-9,9.06-13.51,3.41-6.18,6.53-12.84,9.03-19.42-5.25,10.59-12.79,21.3-18.21,31.97-.18-1.45-.34-2.91-.47-4.37,3.1-4.68,7.23-9.58,9.6-14.59,1.84-4.14,3.37-8.4,4.82-12.7,1.06-1.49,2.1-2.99,3.09-4.53-.87,1.02-1.75,2.05-2.61,3.09.55-1.64,1.08-3.28,1.62-4.92-.96,2.05-1.84,4.13-2.71,6.22-.68.83-1.36,1.67-2.04,2.51.78-1.94,1.53-3.9,2.25-5.86.2-.37.4-.74.59-1.11-.13.19-.26.38-.39.57,1.26-3.46,2.44-6.95,3.53-10.47-1.93,4.54-3.79,9.1-5.68,13.65-2.84,4.33-7.02,8.89-9.32,13.54-.37.77-.72,1.55-1.05,2.33-.76,1.39-1.47,2.82-2.15,4.25-.03-1.26-.03-2.52-.02-3.77.57-.88,1.14-1.75,1.71-2.64,5.53-9.41,11.47-19.52,15.51-29.64-3.9,7.5-9.85,16.87-13.66,24.44-1.1,2.23-2.31,4.4-3.54,6.56.02-.98.04-1.95.08-2.93,1.48-3.9,3.14-7.73,4.84-11.53,3.53-7.8,8.94-15.54,13.02-23.07-4.76,7.14-10.37,14.85-13.93,22.66-1.34,3.03-2.63,6.1-3.79,9.22.13-2.19.3-4.38.52-6.56.48-1.09.97-2.17,1.5-3.23,2.16-4.17,6.19-8.55,8.54-12.62-3.34,4.15-7.11,8.74-9.8,13.63.21-1.83.46-3.66.73-5.49,2.33-3.67,5.06-7.25,7.38-10.63,2.43-3.34,5.55-7.4,8.11-10.61,1.11-1.4,2.23-2.78,3.49-4.05-.72.54-1.36,1.17-2,1.8-4.37,4.49-8.43,9.33-11.93,14.53-1.42,2.24-3.16,4.57-4.75,6.97.19-1.16.39-2.31.6-3.47,2.27-3.08,4.72-6.16,6.61-9.15,2.13-3.38,4.77-6.38,6.99-9.69-1.85,1.94-3.62,3.93-5.35,5.94-1.77,2.06-3.19,4.34-4.59,6.61-.29.48-.57.97-.85,1.45,4.74-8.62,10.53-16.69,16.16-24.74-6.92,7.99-14.11,17.73-18.65,27.9.24-1.25.49-2.5.76-3.75.12-.54.24-1.07.36-1.61,3.59-4.37,6.9-8.95,9.86-13.78,3.14-5.34,5.82-10.92,8.1-16.67-2.61,4.75-6.21,11.57-8.96,16.15-2.39,3.96-6.05,9.45-8.88,13.78.11-.48.21-.96.32-1.44,6.34-10.21,11.89-20.93,15.99-32.24-2.76,5.54-6.57,13.43-9.43,18.82-1.74,3.26-3.95,7.35-6.04,11.26.59-2,1.21-4.02,1.83-6.03,3.64-4.77,6.98-9.84,8.26-15.75-1.56,3.57-3.46,6.94-5.56,10.21-.61.95-1.24,1.89-1.86,2.83.25-.81.51-1.61.76-2.4.53-.86,1.06-1.72,1.57-2.59,1.78-2.6,3.25-5.4,4.44-8.32,2.1-4.34,3.95-8.79,5.58-13.31-1.16,2.28-2.3,4.57-3.43,6.86.46-1.76.84-3.53,1.14-5.32-1.32,3.85-2.62,7.7-4.2,11.44-.56,1.11-1.13,2.21-1.7,3.31-.69,1.31-1.39,2.62-2.1,3.92,1.17-3.63,2.25-6.86,3.08-9.26.72-2.1,1.26-3.58,1.51-4.16.01-.02.02-.05.03-.07.25-.55.33-.82.29-.91-.03-.04-.11.01-.23.13-.18.18-.44.5-.71.86.41-1.12.86-2.23,1.37-3.32,1.2-2.06,2.53-4.07,3.99-5.97-2.2,1.92-4.16,4.23-5.45,6.87-.79,1.81-1.44,3.67-1.97,5.57-1.22,2.29-2.48,5.07-3.72,8.17.13-.9.27-1.81.44-2.7,1.44-5.18,3.68-11.34,5.05-16.53-1.2,2.62-2.33,5.28-3.34,7.99,1.47-4.34,3.28-8.58,5.13-12.77-3.32,5.57-6.03,11.52-7.7,17.8-.87,3.69-1.39,7.45-1.58,11.23-.3.73-.59,1.47-.87,2.21,0-1.12,0-2.24,0-3.35.05-2.29.18-4.58.4-6.86,1.14-5.69,2.66-11.32,4.25-16.89-1.16,2.77-2.25,5.74-3.2,8.82.34-2.07.74-4.14,1.18-6.2-1.41,4.24-2.41,8.63-3,13.06-1.27,5.68-1.95,11.52-1.69,17.05-.3.87-.6,1.75-.88,2.63-.09-1.29-.16-2.57-.13-3.88.22-8.5,1.05-16.97,1.43-25.47-1.35,8.42-2.29,16.93-2.39,25.47,0,1.7.17,3.45.38,5.13.03.24.05.48.07.72-.33,1.08-.65,2.16-.96,3.24-.68-10.65-1.09-21.66-1.24-32.08-.98,11.24-.74,22.59.77,33.78-.17.63-.34,1.27-.5,1.9-.24-2.08-.63-4.16-1.1-6.19-.57-2.27-1.21-4.52-1.57-6.83-.89-5.39-1.09-10.88-.86-16.34-1.05,6.22-.97,12.65.32,18.83,1.03,4.04,2.17,8.12,2.78,12.26-.32,1.3-.61,2.61-.89,3.92-.27-2.12-.64-4.24-1.09-6.32-1.25-5.36-2.75-10.69-4.94-15.76,2.11,8.12,4.33,16.27,5.52,24.57-.22,1.13-.43,2.25-.62,3.39.01-3.27-.32-6.54-.98-9.75-1-4.22-2.8-8.64-4.21-12.76.66,4.43,2.23,8.63,3.22,12.98.82,3.79,1.27,7.66,1.65,11.53-.26,1.69-.49,3.39-.68,5.1-.61-3.2-1.39-6.37-2.29-9.49-1.86-7.4-3.54-14.89-4.53-22.46-.03.96.04,1.92.11,2.88.55,6.7,1.78,13.33,3.45,19.84,1.16,3.97,2.17,7.97,2.98,12.01-.08.9-.15,1.8-.21,2.7-1.67-4.9-3.45-9.75-5.12-14.64-.9-2.61-1.77-5.22-2.55-7.86-.73-2.65-1.56-5.3-1.73-8.06-.09.69-.07,1.39-.03,2.08.36,4.86,1.81,9.57,3.35,14.16,1.74,4.98,3.72,9.87,6.05,14.59-.08,1.2-.14,2.41-.19,3.61-1.98-4.96-4.1-9.87-6.08-14.82-2.2-5.38-3.86-10.94-5.55-16.5,1.67,11.23,6.24,21.75,11.63,31.66-.05,1.65-.07,3.31-.05,4.96-1.81-4.21-3.75-8.36-5.74-12.49-2.16-4.57-5.68-11.27-7.53-15.9,1.47,5.7,4.13,11.03,6.62,16.34,2.13,4.37,4.32,8.71,6.66,12.96,0,.18,0,.35,0,.52,0,.09,0,.19,0,.28-3.98-5.18-8.94-10.09-12.12-15.68-1.24-2.26-2.36-4.59-3.36-7,1.23,5.08,3.64,9.87,6.75,14.06,2.42,3.31,5.79,6.43,8.76,9.46.06,1.9.17,3.8.33,5.7-2.47-3.05-5.46-6.04-7.53-9.2-2.65-4.08-4.98-8.34-7.37-12.58,2.99,8.37,8.83,15.88,14.96,22.42.15,1.58.33,3.16.55,4.74-5.42-6.48-12.04-13.04-15.96-20.36-.27-.56-.56-1.12-.69-1.72.03.63.23,1.24.44,1.83,3.23,8.02,9.99,14.82,16.3,20.8.12.85.26,1.7.41,2.55-7.28-5.39-15.22-11.12-20.67-18.34,4.41,8.04,12.71,14.16,20.72,18.63.12.69.25,1.38.39,2.06-3.66-2.01-8.22-3.86-11.69-6-3.81-2.38-7.43-5-10.95-7.81,5.77,6.51,14.55,10.92,22.68,14.02,1.28,6.41,3.21,12.68,5.85,18.65.31.72.65,1.42.98,2.13l.5,1.06.54,1.04c.36.69.71,1.39,1.08,2.08l1.16,2.04c.38.68.81,1.33,1.22,2,.41.66.81,1.33,1.26,1.97l1.3,1.94c.45.63.91,1.26,1.37,1.89l.7.93.73.91,1.46,1.81c1.03,1.16,2,2.37,3.09,3.47,2.1,2.27,4.38,4.36,6.71,6.37-.96-1.2-2-2.33-2.93-3.56ZM29.44,65.8c.02,1.44.02,2.89.02,4.34-.19.5-.37,1.01-.55,1.51.11-1.96.29-3.91.53-5.85ZM27.47,117.56c.33-.81.69-1.63,1.07-2.45.78-1.36,1.58-2.7,2.41-4.04.32-.52,4.98-7.53,5.32-8.05-1.32,4.07-7.45,13.15-9.47,16.21.23-.57.45-1.13.67-1.68ZM25.51,122.47c.14-.35.28-.71.42-1.06,3.56-4.25,7.61-9.44,9.78-14.52.24-.56.47-1.12.7-1.67.77-1.08,1.55-2.16,2.33-3.23-1.38,3.41-2.73,6.83-4.23,10.18-1.93,4.16-6.15,9.63-8.75,14.33-.11-1.34-.2-2.68-.26-4.03Z"/></svg>